<?xml version="1.0" encoding="UTF-8" standalone="no"?>
<!-- Created with Inkscape (http://www.inkscape.org/) -->

<svg
   xmlns:dc="http://purl.org/dc/elements/1.1/"
   xmlns:cc="http://creativecommons.org/ns#"
   xmlns:rdf="http://www.w3.org/1999/02/22-rdf-syntax-ns#"
   xmlns:svg="http://www.w3.org/2000/svg"
   xmlns="http://www.w3.org/2000/svg"
   version="1.1"
   width="498.26093"
   height="181.29149"
   id="svg2">
  <defs
     id="defs4">
    <marker
       refX="0"
       refY="0"
       orient="auto"
       id="DotS"
       style="overflow:visible">
      <path
         d="m -2.5,-1 c 0,2.76 -2.24,5 -5,5 -2.76,0 -5,-2.24 -5,-5 0,-2.76 2.24,-5 5,-5 2.76,0 5,2.24 5,5 z"
         transform="matrix(0.2,0,0,0.2,1.48,0.2)"
         id="path4514"
         style="fill-rule:evenodd;stroke:#000000;stroke-width:1pt" />
    </marker>
    <marker
       refX="0"
       refY="0"
       orient="auto"
       id="DiamondS"
       style="overflow:visible">
      <path
         d="M 0,-7.0710768 -7.0710894,0 0,7.0710589 7.0710462,0 0,-7.0710768 z"
         transform="scale(0.2,0.2)"
         id="path4532"
         style="fill-rule:evenodd;stroke:#000000;stroke-width:1pt" />
    </marker>
    <marker
       refX="0"
       refY="0"
       orient="auto"
       id="DiamondSstart"
       style="overflow:visible">
      <path
         d="M 0,-7.0710768 -7.0710894,0 0,7.0710589 7.0710462,0 0,-7.0710768 z"
         transform="matrix(0.2,0,0,0.2,1.2,0)"
         id="path4541"
         style="fill-rule:evenodd;stroke:#000000;stroke-width:1pt" />
    </marker>
    <marker
       refX="0"
       refY="0"
       orient="auto"
       id="SquareS"
       style="overflow:visible">
      <path
         d="M -5,-5 -5,5 5,5 5,-5 -5,-5 z"
         transform="scale(0.2,0.2)"
         id="path4523"
         style="fill-rule:evenodd;stroke:#000000;stroke-width:1pt" />
    </marker>
    <marker
       refX="0"
       refY="0"
       orient="auto"
       id="EmptyDiamondS"
       style="overflow:visible">
      <path
         d="M 0,-7.0710768 -7.0710894,0 0,7.0710589 7.0710462,0 0,-7.0710768 z"
         transform="scale(0.2,0.2)"
         id="path4559"
         style="fill:#ffffff;fill-rule:evenodd;stroke:#000000;stroke-width:1pt" />
    </marker>
    <marker
       refX="0"
       refY="0"
       orient="auto"
       id="EmptyDiamondSstart"
       style="overflow:visible">
      <path
         d="M 0,-7.0710768 -7.0710894,0 0,7.0710589 7.0710462,0 0,-7.0710768 z"
         transform="matrix(0.2,0,0,0.2,1.2,0)"
         id="path4568"
         style="fill:#ffffff;fill-rule:evenodd;stroke:#000000;stroke-width:1pt" />
    </marker>
    <marker
       refX="0"
       refY="0"
       orient="auto"
       id="SquareL"
       style="overflow:visible">
      <path
         d="M -5,-5 -5,5 5,5 5,-5 -5,-5 z"
         transform="scale(0.8,0.8)"
         id="path4517"
         style="fill-rule:evenodd;stroke:#000000;stroke-width:1pt" />
    </marker>
    <marker
       refX="0"
       refY="0"
       orient="auto"
       id="Tail"
       style="overflow:visible">
      <g
         transform="scale(-1.2,-1.2)"
         id="g4483">
        <path
           d="M -3.8048674,-3.9585227 0.54352094,0"
           id="path4485"
           style="fill:none;stroke:#000000;stroke-width:0.80000001;stroke-linecap:round" />
        <path
           d="M -1.2866832,-3.9585227 3.0617053,0"
           id="path4487"
           style="fill:none;stroke:#000000;stroke-width:0.80000001;stroke-linecap:round" />
        <path
           d="M 1.3053582,-3.9585227 5.6537466,0"
           id="path4489"
           style="fill:none;stroke:#000000;stroke-width:0.80000001;stroke-linecap:round" />
        <path
           d="M -3.8048674,4.1775838 0.54352094,0.21974226"
           id="path4491"
           style="fill:none;stroke:#000000;stroke-width:0.80000001;stroke-linecap:round" />
        <path
           d="M -1.2866832,4.1775838 3.0617053,0.21974226"
           id="path4493"
           style="fill:none;stroke:#000000;stroke-width:0.80000001;stroke-linecap:round" />
        <path
           d="M 1.3053582,4.1775838 5.6537466,0.21974226"
           id="path4495"
           style="fill:none;stroke:#000000;stroke-width:0.80000001;stroke-linecap:round" />
      </g>
    </marker>
    <marker
       refX="0"
       refY="0"
       orient="auto"
       id="Arrow1Sstart"
       style="overflow:visible">
      <path
         d="M 0,0 5,-5 -12.5,0 5,5 0,0 z"
         transform="matrix(0.2,0,0,0.2,1.2,0)"
         id="path4459"
         style="fill-rule:evenodd;stroke:#000000;stroke-width:1pt" />
    </marker>
    <marker
       refX="0"
       refY="0"
       orient="auto"
       id="Arrow2Sstart"
       style="overflow:visible">
      <path
         d="M 8.7185878,4.0337352 -2.2072895,0.01601326 8.7185884,-4.0017078 c -1.7454984,2.3720609 -1.7354408,5.6174519 -6e-7,8.035443 z"
         transform="matrix(0.3,0,0,0.3,-0.69,0)"
         id="path4477"
         style="fill-rule:evenodd;stroke-width:0.625;stroke-linejoin:round" />
    </marker>
    <marker
       refX="0"
       refY="0"
       orient="auto"
       id="Arrow2Lstart"
       style="overflow:visible">
      <path
         d="M 8.7185878,4.0337352 -2.2072895,0.01601326 8.7185884,-4.0017078 c -1.7454984,2.3720609 -1.7354408,5.6174519 -6e-7,8.035443 z"
         transform="matrix(1.1,0,0,1.1,1.1,0)"
         id="path4465"
         style="fill-rule:evenodd;stroke-width:0.625;stroke-linejoin:round" />
    </marker>
    <marker
       refX="0"
       refY="0"
       orient="auto"
       id="Arrow1Mend"
       style="overflow:visible">
      <path
         d="M 0,0 5,-5 -12.5,0 5,5 0,0 z"
         transform="matrix(-0.4,0,0,-0.4,-4,0)"
         id="path4456"
         style="fill-rule:evenodd;stroke:#000000;stroke-width:1pt" />
    </marker>
  </defs>
  <metadata
     id="metadata7">
    <rdf:RDF>
      <cc:Work
         rdf:about="">
        <dc:format>image/svg+xml</dc:format>
        <dc:type
           rdf:resource="http://purl.org/dc/dcmitype/StillImage" />
        <dc:title></dc:title>
      </cc:Work>
    </rdf:RDF>
  </metadata>
  <g
     transform="translate(-96,-804.83193)"
     id="layer1">
    <g
       id="text2985"
       style="font-size:40px;font-style:normal;font-weight:normal;line-height:125%;letter-spacing:0px;word-spacing:0px;fill:#000000;fill-opacity:1;stroke:none;font-family:Sans">
      <path
         d="m 196.40827,811.16418 -94.40827,0 0,32.41953 100,57.48409 -100,0"
         id="path37"
         style="fill:none;stroke:#2b0000;stroke-width:12;stroke-linecap:square;stroke-linejoin:bevel;stroke-miterlimit:4;stroke-opacity:1;stroke-dasharray:none;stroke-dashoffset:0;marker-start:none;marker-mid:none" />
      <path
         d="m 418,811.16418 0,89.90362"
         id="path39"
         style="fill:none;stroke:#2b0000;stroke-width:12;stroke-linecap:square;stroke-linejoin:bevel;stroke-miterlimit:4;stroke-opacity:1;stroke-dasharray:none;stroke-dashoffset:0;marker-start:none;marker-mid:none" />
      <path
         d="m 486,901.0678 0,-89.90362 23.62039,0 49.50363,89.90362 26.87598,0 0,-89.90362"
         id="path41"
         style="fill:none;stroke:#2b0000;stroke-width:12;stroke-linecap:square;stroke-linejoin:bevel;stroke-miterlimit:4;stroke-opacity:1;stroke-dasharray:none;stroke-dashoffset:0;marker-start:none;marker-mid:none" />
      <g
         transform="translate(80,-112)"
         id="g13379">
        <path
           d="M 173.90625,917.09375 A 6.0006,6.0006 0 0 0 168,923.15625 l 0,89.90625 a 6.0006,6.0006 0 1 0 12,0 l 0,-89.90625 a 6.0006,6.0006 0 0 0 -6.09375,-6.0625 z"
           id="path3673"
           style="font-size:medium;font-style:normal;font-variant:normal;font-weight:normal;font-stretch:normal;text-indent:0;text-align:start;text-decoration:none;line-height:125%;letter-spacing:0;word-spacing:0;text-transform:none;direction:ltr;block-progression:tb;writing-mode:lr-tb;text-anchor:start;baseline-shift:baseline;color:#000000;fill:#1e000a;fill-opacity:1;stroke:none;stroke-width:12;marker:none;visibility:visible;display:inline;overflow:visible;enable-background:accumulate;font-family:Sans;-inkscape-font-specification:Sans" />
      </g>
      <g
         transform="translate(80,-112)"
         id="g13371">
        <path
           d="m 273.65625,917.125 a 6.0006,6.0006 0 0 0 -3.625,1.53125 l -48.3125,42.71875 -47.71875,0 a 6.0006,6.0006 0 1 0 0,12 l 50,0 3.96875,-1.53125 50,-44.1875 a 6.0006,6.0006 0 0 0 -4.3125,-10.53125 z"
           id="path3026"
           style="font-size:medium;font-style:normal;font-variant:normal;font-weight:normal;font-stretch:normal;text-indent:0;text-align:start;text-decoration:none;line-height:125%;letter-spacing:0;word-spacing:0;text-transform:none;direction:ltr;block-progression:tb;writing-mode:lr-tb;text-anchor:start;baseline-shift:baseline;color:#000000;fill:#1e000a;fill-opacity:1;stroke:none;stroke-width:12;marker:none;visibility:visible;display:inline;overflow:visible;enable-background:accumulate;font-family:Sans;-inkscape-font-specification:Sans" />
      </g>
      <g
         transform="translate(80,-112)"
         id="g13363">
        <path
           d="m 223.65625,961.3125 a 6.0006,6.0006 0 0 0 -3.71875,10.46875 l 50,45.71875 a 6.016254,6.016254 0 1 0 8.125,-8.875 l -50,-45.6875 a 6.0006,6.0006 0 0 0 -4.40625,-1.625 z"
           id="path3028"
           style="font-size:medium;font-style:normal;font-variant:normal;font-weight:normal;font-stretch:normal;text-indent:0;text-align:start;text-decoration:none;line-height:125%;letter-spacing:0;word-spacing:0;text-transform:none;direction:ltr;block-progression:tb;writing-mode:lr-tb;text-anchor:start;baseline-shift:baseline;color:#000000;fill:#1e000a;fill-opacity:1;stroke:none;stroke-width:12;marker:none;visibility:visible;display:inline;overflow:visible;enable-background:accumulate;font-family:Sans;-inkscape-font-specification:Sans" />
        <path
           d="m 183.48743,917.95552 -17.95029,0.006 0.006,17.95027 17.95023,-0.006 -0.006,-17.95027 z"
           id="path13369-48"
           style="font-size:40px;font-style:normal;font-weight:normal;line-height:125%;letter-spacing:0px;word-spacing:0px;fill:#ffffff;fill-opacity:1;fill-rule:evenodd;stroke:#1e000a;stroke-width:1.79502544pt;stroke-opacity:1;font-family:Sans" />
        <path
           d="m 173.51361,979.67451 14.24481,-10.92238 -10.9224,-14.24476 -14.24476,10.92234 10.92235,14.2448 z"
           id="path13369-48-0"
           style="font-size:40px;font-style:normal;font-weight:normal;line-height:125%;letter-spacing:0px;word-spacing:0px;fill:#ffffff;fill-opacity:1;fill-rule:evenodd;stroke:#1e000a;stroke-width:1.79502544pt;stroke-opacity:1;font-family:Sans" />
        <path
           d="m 181.29991,999.5572 -17.93225,0.8046 0.80466,17.9322 17.93219,-0.8046 -0.8046,-17.9322 z"
           id="path13369-48-5"
           style="font-size:40px;font-style:normal;font-weight:normal;line-height:125%;letter-spacing:0px;word-spacing:0px;fill:#ffffff;fill-opacity:1;fill-rule:evenodd;stroke:#1e000a;stroke-width:1.79502544pt;stroke-opacity:1;font-family:Sans" />
        <path
           d="m 278.77963,999.55724 -17.93225,0.80456 0.80466,17.9322 17.93219,-0.8046 -0.8046,-17.93216 z"
           id="path13369-48-03"
           style="font-size:40px;font-style:normal;font-weight:normal;line-height:125%;letter-spacing:0px;word-spacing:0px;fill:#ffffff;fill-opacity:1;fill-rule:evenodd;stroke:#1e000a;stroke-width:1.79502544pt;stroke-opacity:1;font-family:Sans" />
        <path
           d="m 235.78591,962.16273 -16.85837,-6.16508 -6.16505,16.85841 16.85835,6.16498 6.16507,-16.85831 z"
           id="path13369-48-9"
           style="font-size:40px;font-style:normal;font-weight:normal;line-height:125%;letter-spacing:0px;word-spacing:0px;fill:#ffffff;fill-opacity:1;fill-rule:evenodd;stroke:#1e000a;stroke-width:1.79502544pt;stroke-opacity:1;font-family:Sans" />
        <path
           d="m 279.04583,917.95382 -17.95029,0.006 0.006,17.95027 17.95023,-0.006 -0.006,-17.95027 z"
           id="path13369-48-1"
           style="font-size:40px;font-style:normal;font-weight:normal;line-height:125%;letter-spacing:0px;word-spacing:0px;fill:#ffffff;fill-opacity:1;fill-rule:evenodd;stroke:#1e000a;stroke-width:1.79502544pt;stroke-opacity:1;font-family:Sans" />
      </g>
      <g
         id="text13519"
         style="line-height:125%;fill:#000000;font-family:Sans">
        <path
           d="m 206.93669,973.87341 -2.40625,0 7.82031,-41.3164 14.90235,35.4375 15.14844,-35.4375 7.60156,41.3164 -2.57031,0 -5.98829,-32.8125 -14.35546,33.27735 -13.91797,-33.27735 -6.23438,32.8125"
           id="path3035"
           style="font-size:56px;font-variant:normal;font-stretch:normal;font-family:Sawasdee;-inkscape-font-specification:Sawasdee" />
        <path
           d="m 268.48747,945.70935 c 1.91405,3e-5 3.74607,0.37373 5.4961,1.12109 1.74997,0.74743 3.26299,1.75914 4.53906,3.03516 1.27601,1.27606 2.28773,2.7982 3.03516,4.56641 0.74736,1.76824 1.12106,3.6185 1.12109,5.55078 -3e-5,1.95053 -0.37373,3.8099 -1.12109,5.57812 -0.74743,1.76824 -1.75915,3.29037 -3.03516,4.56641 -1.27607,1.25781 -2.78909,2.26953 -4.53906,3.03516 -1.75003,0.74739 -3.58205,1.12109 -5.4961,1.12109 -3.91928,0 -7.26433,-1.39453 -10.03515,-4.18359 -2.77084,-2.78906 -4.15626,-6.16145 -4.15625,-10.11719 -10e-6,-2.58853 0.6289,-4.97655 1.88672,-7.16406 1.27603,-2.20571 2.99868,-3.93748 5.16796,-5.19532 2.18749,-1.27601 4.5664,-1.91403 7.13672,-1.91406 m -11.75781,14.27344 c -1e-5,3.26303 1.14843,6.0612 3.44531,8.39453 2.3151,2.31511 5.10415,3.47266 8.36719,3.47266 3.263,0 6.04295,-1.15755 8.33984,-3.47266 2.31508,-2.33333 3.47263,-5.1315 3.47266,-8.39453 -3e-5,-3.24478 -1.15758,-6.02472 -3.47266,-8.33985 -2.29689,-2.31508 -5.07684,-3.47263 -8.33984,-3.47265 -3.26304,2e-5 -6.05209,1.15757 -8.36719,3.47265 -2.29688,2.31513 -3.44532,5.09507 -3.44531,8.33985"
           id="path3037"
           style="font-size:56px;font-variant:normal;font-stretch:normal;font-family:Sawasdee;-inkscape-font-specification:Sawasdee" />
        <path
           d="m 293.0695,973.87341 -2.46093,0 0,-25.29297 -2.4336,0 0,-2.43359 2.4336,0 0,-6.5625 2.46093,0 0,6.5625 7.65625,0 -0.82031,2.43359 -6.83594,0 0,25.29297"
           id="path3039"
           style="font-size:56px;font-variant:normal;font-stretch:normal;font-family:Sawasdee;-inkscape-font-specification:Sawasdee" />
        <path
           d="m 304.71794,939.58435 c 0,-0.60153 0.20963,-1.12106 0.62891,-1.55859 0.43749,-0.43747 0.96614,-0.65622 1.58594,-0.65625 0.60155,3e-5 1.11197,0.21878 1.53125,0.65625 0.43749,0.43753 0.65624,0.95706 0.65625,1.55859 -1e-5,0.61983 -0.20965,1.14847 -0.62891,1.58594 -0.41928,0.4193 -0.93881,0.62894 -1.55859,0.6289 -0.6198,4e-5 -1.14845,-0.2096 -1.58594,-0.6289 -0.41928,-0.43747 -0.62891,-0.96611 -0.62891,-1.58594 m 3.44531,34.28906 -2.46093,0 0,-27.72656 2.46093,0 0,27.72656"
           id="path3041"
           style="font-size:56px;font-variant:normal;font-stretch:normal;font-family:Sawasdee;-inkscape-font-specification:Sawasdee" />
        <path
           d="m 330.28435,945.70935 c 1.91404,3e-5 3.74607,0.37373 5.49609,1.12109 1.74998,0.74743 3.263,1.75914 4.53906,3.03516 1.27602,1.27606 2.28773,2.7982 3.03516,4.56641 0.74736,1.76824 1.12106,3.6185 1.12109,5.55078 -3e-5,1.95053 -0.37373,3.8099 -1.12109,5.57812 -0.74743,1.76824 -1.75914,3.29037 -3.03516,4.56641 -1.27606,1.25781 -2.78908,2.26953 -4.53906,3.03516 -1.75002,0.74739 -3.58205,1.12109 -5.49609,1.12109 -3.91929,0 -7.26434,-1.39453 -10.03516,-4.18359 -2.77084,-2.78906 -4.15625,-6.16145 -4.15625,-10.11719 0,-2.58853 0.6289,-4.97655 1.88672,-7.16406 1.27604,-2.20571 2.99869,-3.93748 5.16797,-5.19532 2.18749,-1.27601 4.56639,-1.91403 7.13672,-1.91406 m -11.75781,14.27344 c -1e-5,3.26303 1.14843,6.0612 3.44531,8.39453 2.31509,2.31511 5.10415,3.47266 8.36719,3.47266 3.26299,0 6.04294,-1.15755 8.33984,-3.47266 2.31507,-2.33333 3.47263,-5.1315 3.47266,-8.39453 -3e-5,-3.24478 -1.15759,-6.02472 -3.47266,-8.33985 -2.2969,-2.31508 -5.07685,-3.47263 -8.33984,-3.47265 -3.26304,2e-5 -6.0521,1.15757 -8.36719,3.47265 -2.29688,2.31513 -3.44532,5.09507 -3.44531,8.33985"
           id="path3043"
           style="font-size:56px;font-variant:normal;font-stretch:normal;font-family:Sawasdee;-inkscape-font-specification:Sawasdee" />
        <path
           d="m 351.72185,946.14685 2.625,0 c 0.34634,1.20315 0.51952,2.42451 0.51953,3.66406 l 0,4.15625 c 1.00259,-2.27862 2.38801,-4.22002 4.15625,-5.82422 1.78644,-1.62236 3.51821,-2.43356 5.19531,-2.43359 1.85936,3e-5 3.42706,0.51956 4.70313,1.55859 1.29424,1.03909 2.22393,2.36982 2.78906,3.99219 0.58331,1.62242 0.87497,3.45445 0.875,5.4961 l 0,17.11718 -2.40625,0 0,-17.11718 c -2e-5,-1.00259 -0.10028,-1.96874 -0.30078,-2.89844 -0.18232,-0.92967 -0.4831,-1.84113 -0.90235,-2.73438 -0.41929,-0.8932 -1.04819,-1.60414 -1.88671,-2.13281 -0.82034,-0.54685 -1.7956,-0.82029 -2.92579,-0.82031 -1.07553,2e-5 -2.19662,0.41929 -3.36328,1.25781 -1.14845,0.83857 -2.15105,1.86851 -3.00781,3.08984 -0.83855,1.20315 -1.54037,2.4883 -2.10547,3.85547 -0.54688,1.36721 -0.82032,2.57033 -0.82031,3.60938 l 0,13.89062 -2.46094,0 0,-24.0625 c 0,-1.56768 -0.22787,-2.78903 -0.68359,-3.66406"
           id="path3045"
           style="font-size:56px;font-variant:normal;font-stretch:normal;font-family:Sawasdee;-inkscape-font-specification:Sawasdee" />
        <path
           d="m 435.88591,964.41248 1.96875,1.33984 c -1.89587,2.60678 -4.30212,4.66667 -7.21875,6.17969 -2.9167,1.49479 -6.06123,2.24218 -9.43359,2.24218 -2.80732,0 -5.487,-0.54687 -8.03907,-1.64062 -2.55209,-1.09375 -4.74871,-2.57031 -6.58984,-4.42969 -1.84115,-1.85937 -3.3086,-4.07421 -4.40234,-6.64453 -1.09376,-2.5703 -1.64063,-5.26821 -1.64063,-8.09375 0,-2.8255 0.54687,-5.52341 1.64063,-8.09375 1.09374,-2.57028 2.56119,-4.78512 4.40234,-6.64453 1.84113,-1.85934 4.03775,-3.3359 6.58984,-4.42969 2.55207,-1.09371 5.23175,-1.64058 8.03907,-1.64062 3.35414,4e-5 6.48955,0.76566 9.40625,2.29687 2.91663,1.51306 5.33199,3.58207 7.24609,6.20703 l -1.96875,1.44922 c -1.69535,-2.27861 -3.82816,-4.07418 -6.39844,-5.38672 -2.55211,-1.33069 -5.31383,-1.99605 -8.28515,-1.99609 -3.31773,4e-5 -6.38023,0.82035 -9.1875,2.46094 -2.78908,1.64066 -4.99481,3.87373 -6.61719,6.69922 -1.6224,2.80731 -2.4336,5.87893 -2.43359,9.21484 -1e-5,2.47918 0.47395,4.84897 1.42187,7.10937 0.96614,2.26043 2.26041,4.21095 3.88281,5.85157 1.62239,1.64063 3.56379,2.95313 5.82422,3.9375 2.2604,0.96615 4.63019,1.44922 7.10938,1.44922 2.97132,0 5.73304,-0.66537 8.28515,-1.9961 2.57028,-1.33072 4.70309,-3.14452 6.39844,-5.4414"
           id="path3047"
           style="font-size:56px;font-variant:normal;font-stretch:normal;font-family:Sawasdee;-inkscape-font-specification:Sawasdee" />
        <path
           d="m 466.26482,973.87341 -2.625,0 c -0.32815,-1.03906 -0.49221,-2.26041 -0.49219,-3.66406 l 0,-2.16016 c -1.31252,1.82293 -2.88934,3.32683 -4.73047,4.51172 -1.82293,1.1849 -3.75522,1.77735 -5.79687,1.77735 -1.47658,0 -2.79819,-0.22787 -3.96485,-0.6836 -1.14844,-0.47395 -2.0599,-1.09375 -2.73437,-1.85937 -0.67449,-0.76562 -1.1849,-1.57682 -1.53125,-2.4336 -0.34636,-0.87499 -0.51954,-1.7591 -0.51953,-2.65234 -1e-5,-0.92968 0.13671,-1.78645 0.41015,-2.57031 0.29166,-0.78385 0.65625,-1.44921 1.09375,-1.9961 0.45573,-0.56509 1.04817,-1.06639 1.77735,-1.5039 0.74738,-0.45572 1.45832,-0.8203 2.13281,-1.09375 0.6927,-0.29165 1.54947,-0.53775 2.57031,-0.73828 1.02082,-0.21874 1.90494,-0.37369 2.65234,-0.46485 0.74739,-0.10936 1.67707,-0.19139 2.78907,-0.24609 1.11196,-0.0547 1.98696,-0.082 2.625,-0.082 0.65623,-0.0182 1.48565,-0.0273 2.48828,-0.0274 l 0.73828,0 c -0.0912,-3.00779 -0.9844,-5.40492 -2.67969,-7.1914 -1.6771,-1.78644 -3.6185,-2.67966 -5.82422,-2.67969 -1.29428,3e-5 -2.56121,0.33727 -3.80078,1.01172 -1.22136,0.6745 -2.28777,1.65888 -3.19922,2.95312 l -1.9414,-1.28515 c 1.11197,-1.71352 2.45181,-2.99867 4.01953,-3.85547 1.5677,-0.85674 3.20832,-1.28513 4.92187,-1.28516 1.3854,3e-5 2.71613,0.28258 3.99219,0.84766 1.29425,0.5469 2.4518,1.33075 3.47266,2.35156 1.02081,1.00263 1.84112,2.2969 2.46093,3.88281 0.638,1.58596 0.97524,3.33596 1.01172,5.25 l 0,12.22266 c -2e-5,1.58594 0.22784,2.80729 0.6836,3.66406 m -13.64453,-1.96875 c 2.09634,10e-6 4.12889,-0.70182 6.09765,-2.10547 1.96873,-1.40364 3.44529,-3.0078 4.42969,-4.8125 l 0,-5.25 c -0.85679,0.0183 -1.57684,0.0365 -2.16016,0.0547 -0.56512,0.0182 -1.34897,0.0638 -2.35156,0.13672 -0.98439,0.0547 -1.82293,0.12762 -2.51562,0.21875 -0.69273,0.0729 -1.50392,0.20053 -2.4336,0.38281 -0.91147,0.18231 -1.68621,0.39194 -2.32422,0.62891 -0.63803,0.21876 -1.30339,0.51043 -1.99609,0.875 -0.67449,0.34636 -1.22136,0.73829 -1.64063,1.17578 -0.41927,0.41928 -0.76563,0.9297 -1.03906,1.53125 -0.25521,0.60157 -0.38282,1.25782 -0.38281,1.96875 -10e-6,1.31251 0.54687,2.50652 1.64062,3.58203 1.09375,1.07553 2.65234,1.61329 4.67579,1.61328"
           id="path3049"
           style="font-size:56px;font-variant:normal;font-stretch:normal;font-family:Sawasdee;-inkscape-font-specification:Sawasdee" />
        <path
           d="m 474.0031,946.14685 2.625,0 c 0.34634,1.20315 0.51952,2.42451 0.51953,3.66406 l 0,3.44532 c 0.6927,-1.91404 2.05989,-3.64581 4.10156,-5.19532 2.04165,-1.56768 4.10155,-2.35153 6.17969,-2.35156 2.31508,3e-5 4.43878,0.65628 6.37109,1.96875 1.93227,1.2943 3.44529,3.03518 4.53907,5.22266 1.11194,2.18752 1.66793,4.54819 1.66796,7.08203 -3e-5,2.55209 -0.55602,4.931 -1.66796,7.13672 -1.09378,2.1875 -2.6068,3.92839 -4.53907,5.22265 -1.93231,1.29427 -4.05601,1.94141 -6.37109,1.94141 -2.1146,0 -4.19272,-0.7474 -6.23438,-2.24219 -2.02344,-1.51302 -3.3724,-3.27213 -4.04687,-5.27734 l 0,19.35937 -2.46094,0 0,-36.3125 c 0,-1.56768 -0.22787,-2.78903 -0.68359,-3.66406 m 6.17969,5.46875 c -2.02345,2.2969 -3.03517,5.08596 -3.03516,8.36719 -10e-6,3.28126 1.01171,6.07943 3.03516,8.39453 2.02342,2.31511 4.43878,3.47266 7.24609,3.47266 2.77081,0 5.17706,-1.15755 7.21875,-3.47266 2.04164,-2.33333 3.06247,-5.1315 3.0625,-8.39453 -3e-5,-3.28123 -1.02086,-6.07029 -3.0625,-8.36719 -2.04169,-2.29685 -4.44794,-3.44529 -7.21875,-3.44531 -2.80731,2e-5 -5.22267,1.14846 -7.24609,3.44531"
           id="path3051"
           style="font-size:56px;font-variant:normal;font-stretch:normal;font-family:Sawasdee;-inkscape-font-specification:Sawasdee" />
        <path
           d="m 510.39763,973.87341 -2.46094,0 0,-25.29297 -2.43359,0 0,-2.43359 2.43359,0 0,-6.5625 2.46094,0 0,6.5625 7.65625,0 -0.82031,2.43359 -6.83594,0 0,25.29297"
           id="path3053"
           style="font-size:56px;font-variant:normal;font-stretch:normal;font-family:Sawasdee;-inkscape-font-specification:Sawasdee" />
        <path
           d="m 523.03044,946.14685 2.46094,0 0,17.14453 c -1e-5,2.38803 0.72004,4.41147 2.16016,6.07031 1.44009,1.65886 3.1992,2.48829 5.27734,2.48829 2.09634,0 3.90102,-0.82943 5.41406,-2.48829 1.53123,-1.67707 2.29685,-3.70051 2.29688,-6.07031 l 0,-17.14453 2.46093,0 0,17.14453 c -2e-5,3.00782 -0.97528,5.59636 -2.92578,7.76563 -1.95054,2.15104 -4.32944,3.22656 -7.13672,3.22656 -2.78907,0 -5.15886,-1.07552 -7.10937,-3.22656 -1.9323,-2.16927 -2.89844,-4.75781 -2.89844,-7.76563 l 0,-17.14453"
           id="path3055"
           style="font-size:56px;font-variant:normal;font-stretch:normal;font-family:Sawasdee;-inkscape-font-specification:Sawasdee" />
        <path
           d="m 551.54997,946.14685 2.625,0 c 0.34635,1.20315 0.51953,2.42451 0.51953,3.66406 l 0,3.44532 c 0.41927,-1.40363 1.39453,-2.86196 2.92579,-4.375 1.53123,-1.513 3.0716,-2.57029 4.62109,-3.17188 l 2.73437,1.94141 c -1.60418,2e-5 -3.20834,0.56513 -4.8125,1.69531 -1.58594,1.13023 -2.89844,2.63414 -3.9375,4.51172 -1.02084,1.85939 -1.53125,3.78257 -1.53125,5.76953 l 0,14.24609 -2.46093,0 0,-24.0625 c -10e-6,-1.56768 -0.22787,-2.78903 -0.6836,-3.66406"
           id="path3057"
           style="font-size:56px;font-variant:normal;font-stretch:normal;font-family:Sawasdee;-inkscape-font-specification:Sawasdee" />
        <path
           d="m 571.42888,957.65857 20.15234,0 c -0.51044,-2.75259 -1.71356,-5.02211 -3.60937,-6.80859 -1.89586,-1.78644 -4.06513,-2.67967 -6.50781,-2.67969 -2.4245,2e-5 -4.58465,0.89325 -6.48047,2.67969 -1.87762,1.78648 -3.06251,4.056 -3.55469,6.80859 m 22.83203,2.32422 -23.21484,0 c -10e-6,3.26303 1.02082,6.03386 3.0625,8.3125 2.04165,2.27865 4.45701,3.41797 7.24609,3.41797 1.84113,0 3.64581,-0.49219 5.41406,-1.47657 1.76821,-0.98437 3.11717,-2.30598 4.04688,-3.96484 l 2.16015,1.23047 c -1.112,1.98698 -2.75263,3.61849 -4.92187,4.89453 -2.16929,1.25781 -4.40236,1.88672 -6.69922,1.88672 -2.31512,0 -4.44793,-0.64714 -6.39844,-1.94141 -1.9323,-1.29426 -3.45443,-3.03515 -4.5664,-5.22265 -1.09376,-2.20572 -1.64063,-4.58463 -1.64063,-7.13672 0,-2.53384 0.55599,-4.89451 1.66797,-7.08203 1.1302,-2.18748 2.67057,-3.92836 4.62109,-5.22266 1.96874,-1.31247 4.11067,-1.96872 6.42579,-1.96875 2.18748,3e-5 4.22003,0.59248 6.09765,1.77734 1.89581,1.1667 3.42706,2.74352 4.59375,4.73047 1.16664,1.987 1.85023,4.16539 2.05078,6.53516 l 0.0547,1.23047"
           id="path3059"
           style="font-size:56px;font-variant:normal;font-stretch:normal;font-family:Sawasdee;-inkscape-font-specification:Sawasdee" />
      </g>
    </g>
  </g>
</svg>
