<?xml version="1.0" encoding="UTF-8" standalone="no"?>
<!-- Created with Inkscape (http://www.inkscape.org/) -->

<svg
   xmlns:dc="http://purl.org/dc/elements/1.1/"
   xmlns:cc="http://creativecommons.org/ns#"
   xmlns:rdf="http://www.w3.org/1999/02/22-rdf-syntax-ns#"
   xmlns:svg="http://www.w3.org/2000/svg"
   xmlns="http://www.w3.org/2000/svg"
   xmlns:sodipodi="http://sodipodi.sourceforge.net/DTD/sodipodi-0.dtd"
   xmlns:inkscape="http://www.inkscape.org/namespaces/inkscape"
   width="338.0675"
   height="98.375"
   id="svg2"
   version="1.1"
   inkscape:version="0.48.4 r9939"
   sodipodi:docname="drawing.svg">
  <defs
     id="defs4" />
  <sodipodi:namedview
     id="base"
     pagecolor="#2b3c4b"
     bordercolor="#666666"
     borderopacity="1.0"
     inkscape:pageopacity="1"
     inkscape:pageshadow="2"
     inkscape:zoom="1.4142136"
     inkscape:cx="228.65629"
     inkscape:cy="29.147913"
     inkscape:document-units="px"
     inkscape:current-layer="layer2"
     showgrid="false"
     fit-margin-top="0"
     fit-margin-left="0"
     fit-margin-right="0"
     fit-margin-bottom="0"
     inkscape:window-width="1301"
     inkscape:window-height="744"
     inkscape:window-x="65"
     inkscape:window-y="107"
     inkscape:window-maximized="1" />
  <metadata
     id="metadata7">
    <rdf:RDF>
      <cc:Work
         rdf:about="">
        <dc:format>image/svg+xml</dc:format>
        <dc:type
           rdf:resource="http://purl.org/dc/dcmitype/StillImage" />
        <dc:title></dc:title>
      </cc:Work>
    </rdf:RDF>
  </metadata>
  <g
     inkscape:groupmode="layer"
     id="layer2"
     inkscape:label="Layer"
     transform="translate(-212,-476.98718)" />
  <g
     inkscape:label="Layer 1"
     inkscape:groupmode="layer"
     id="layer1"
     transform="translate(-212,-476.98718)">
    <g
       transform="matrix(1.25,0,0,-1.25,196.11375,588.75014)"
       inkscape:label="ink_ext_XXXXXX"
       id="g2993">
      <g
         transform="scale(0.1,0.1)"
         id="g2995">
        <path
           id="path2999"
           style="fill:#ffffff;fill-opacity:1;fill-rule:nonzero;stroke:none"
           d="m 1071.32,196.93056 94.53,0 0,143.75 -53.9,-115.617 -54.07,115.937 0,-151.25 -7.18,0.313 0,167.969 7.18,0 54.07,-115.942 53.9,115.633 7.19,0.309 0,-168.282 -101.72,0.313 0,6.867 z"
           inkscape:connector-curvature="0" />
        <path
           id="path3001"
           style="fill:#ffffff;fill-opacity:1;fill-rule:nonzero;stroke:none"
           d="m 1312.88,205.53256 c -8.75,-12.11 -22.97,-18.129 -42.65,-18.129 -19.69,0 -33.99,6.019 -42.82,18.129 -8.75,12.07 -13.12,30.859 -13.12,56.398 l 0,23.602 c 0,25.621 4.37,44.449 13.12,56.558 8.83,12.071 23.13,18.133 42.82,18.133 19.68,0 33.9,-6.062 42.65,-18.133 8.83,-12.109 13.28,-30.937 13.28,-56.558 l 0,-23.602 c 0,-25.539 -4.45,-44.328 -13.28,-56.398 z m -22.5,144.371 c -5.62,1.961 -12.34,2.969 -20.15,2.969 -7.82,0 -14.53,-1.008 -20.16,-2.969 -5.62,-1.992 -10.7,-5.391 -15.16,-10.153 -4.49,-4.808 -7.89,-11.718 -10.15,-20.777 -2.19,-9.07 -3.28,-20.242 -3.28,-33.441 l 0,-23.602 c 0,-13.238 1.09,-24.367 3.28,-33.43 2.26,-9.07 5.66,-16.019 10.15,-20.777 4.46,-4.812 9.54,-8.211 15.16,-10.16 5.63,-1.992 12.34,-2.973 20.16,-2.973 7.81,0 14.53,0.981 20.15,2.973 5.63,1.949 10.67,5.348 15.16,10.16 4.45,4.758 7.81,11.707 10,20.777 2.26,9.063 3.44,20.192 3.44,33.43 l 0,23.602 c 0,13.199 -1.18,24.371 -3.44,33.441 -2.19,9.059 -5.55,15.969 -10,20.777 -4.49,4.762 -9.53,8.161 -15.16,10.153 z"
           inkscape:connector-curvature="0" />
        <path
           id="path3003"
           style="fill:#ffffff;fill-opacity:1;fill-rule:nonzero;stroke:none"
           d="m 1467.3,357.72356 0,-7.191 -56.41,0 0,-160.782 -7.19,0 0,160.782 -56.4,0 0,7.191 120,0 z"
           inkscape:connector-curvature="0" />
        <path
           id="path3005"
           style="fill:#ffffff;fill-opacity:1;fill-rule:nonzero;stroke:none"
           d="m 1493.9,189.75056 7.1914,0 0,167.973 -7.1914,0 0,-167.973 z"
           inkscape:connector-curvature="0" />
        <path
           id="path3007"
           style="fill:#ffffff;fill-opacity:1;fill-rule:nonzero;stroke:none"
           d="m 1641.55,205.53256 c -8.75,-12.11 -22.96,-18.129 -42.65,-18.129 -19.69,0 -33.99,6.019 -42.81,18.129 -8.75,12.07 -13.13,30.859 -13.13,56.398 l 0,23.602 c 0,25.621 4.38,44.449 13.13,56.558 8.82,12.071 23.12,18.133 42.81,18.133 19.69,0 33.9,-6.062 42.65,-18.133 8.83,-12.109 13.29,-30.937 13.29,-56.558 l 0,-23.602 c 0,-25.539 -4.46,-44.328 -13.29,-56.398 z m -22.5,144.371 c -5.62,1.961 -12.34,2.969 -20.15,2.969 -7.81,0 -14.53,-1.008 -20.16,-2.969 -5.62,-1.992 -10.7,-5.391 -15.15,-10.153 -4.5,-4.808 -7.89,-11.718 -10.16,-20.777 -2.19,-9.07 -3.28,-20.242 -3.28,-33.441 l 0,-23.602 c 0,-13.238 1.09,-24.367 3.28,-33.43 2.27,-9.07 5.66,-16.019 10.16,-20.777 4.45,-4.812 9.53,-8.211 15.15,-10.16 5.63,-1.992 12.35,-2.973 20.16,-2.973 7.81,0 14.53,0.981 20.15,2.973 5.63,1.949 10.67,5.348 15.16,10.16 4.45,4.758 7.81,11.707 10,20.777 2.27,9.063 3.44,20.192 3.44,33.43 l 0,23.602 c 0,13.199 -1.17,24.371 -3.44,33.441 -2.19,9.059 -5.55,15.969 -10,20.777 -4.49,4.762 -9.53,8.161 -15.16,10.153 z"
           inkscape:connector-curvature="0" />
        <path
           id="path3009"
           style="fill:#ffffff;fill-opacity:1;fill-rule:nonzero;stroke:none"
           d="m 1714.91,196.93056 74.38,0 -85.98,148.602 0,-155.782 -7.18,0 0,167.973 8.43,0 89.69,-155.32 0,155.32 7.19,0 0,-167.973 -86.57,0 0.04,7.18 z"
           inkscape:connector-curvature="0" />
        <path
           id="path3011"
           style="fill:#ffffff;fill-opacity:1;fill-rule:nonzero;stroke:none"
           d="m 2022.69,220.53256 c -4.42,-10.629 -10.47,-18.828 -18.28,-24.532 -7.82,-5.75 -19.61,-8.597 -35.32,-8.597 -19.68,0 -33.98,6.019 -42.81,18.129 -8.75,12.07 -13.12,30.859 -13.12,56.398 l 0,23.602 c 0,25.621 4.37,44.449 13.12,56.558 8.83,12.071 23.13,18.133 42.81,18.133 15.71,0 27.5,-2.93 35.32,-8.75 7.81,-5.75 13.9,-13.871 18.28,-24.383 l -6.56,-3.117 c -3.68,9.25 -8.87,16.399 -15.63,21.399 -6.68,5 -17.15,7.5 -31.41,7.5 -7.81,0 -14.53,-1.008 -20.15,-2.969 -5.63,-1.992 -10.71,-5.391 -15.16,-10.153 -4.49,-4.808 -7.89,-11.718 -10.15,-20.777 -2.19,-9.07 -3.29,-20.242 -3.29,-33.441 l 0,-23.602 c 0,-13.238 1.1,-24.367 3.29,-33.43 2.26,-9.07 5.66,-16.019 10.15,-20.777 4.45,-4.812 9.53,-8.211 15.16,-10.16 5.62,-1.992 12.34,-2.973 20.15,-2.973 14.26,0 24.73,2.5 31.41,7.5 6.76,5 11.91,12.192 15.63,21.563 l 6.56,-3.121 z"
           inkscape:connector-curvature="0" />
        <path
           id="path3013"
           style="fill:#ffffff;fill-opacity:1;fill-rule:nonzero;stroke:none"
           d="m 2062.84,196.93056 88.29,0 -50.94,140 -53.44,-147.18 -7.66,0 61.1,168.282 61.25,-168.282 -98.6,0 0,7.18 z"
           inkscape:connector-curvature="0" />
        <path
           id="path3015"
           style="fill:#ffffff;fill-opacity:1;fill-rule:nonzero;stroke:none"
           d="m 2248.23,270.37256 -3.59,6.25 13.44,7.66 c 11.01,6.129 16.56,15.82 16.56,29.058 0,24.774 -18.91,37.192 -56.72,37.192 l -22.03,0 0,-160.782 -7.19,0 0,167.973 29.22,0 c 21.13,0 37.07,-3.91 47.81,-11.723 10.71,-7.738 16.1,-18.597 16.1,-32.66 0,-16.047 -6.72,-27.808 -20.16,-35.308 l -13.44,-7.66 z"
           inkscape:connector-curvature="0" />
        <path
           id="path3017"
           style="fill:#ffffff;fill-opacity:1;fill-rule:nonzero;stroke:none"
           d="m 2413.98,357.72356 0,-7.191 -56.41,0 0.04,-160.782 -7.19,0 0,160.782 -56.4,0 0,7.191 119.96,0 z"
           inkscape:connector-curvature="0" />
        <path
           id="path3019"
           style="fill:#ffffff;fill-opacity:1;fill-rule:nonzero;stroke:none"
           d="m 2458.39,357.72356 91.88,0 0,-95.793 c 0,-25.539 -4.46,-44.328 -13.29,-56.398 -8.75,-12.11 -22.96,-18.129 -42.65,-18.129 -19.69,0 -33.99,6.019 -42.81,18.129 -8.75,12.07 -13.13,30.859 -13.13,56.398 l 0,95.793 7.19,0 0,-95.793 c 0,-13.238 1.09,-24.367 3.28,-33.43 2.27,-9.07 5.66,-16.019 10.16,-20.777 4.45,-4.812 9.53,-8.211 15.15,-10.16 5.63,-1.992 12.35,-2.973 20.16,-2.973 7.81,0 14.53,0.981 20.15,2.973 5.63,1.949 10.67,5.348 15.16,10.16 4.45,4.758 7.81,11.707 10,20.777 2.27,9.063 3.44,20.192 3.44,33.43 l 0,88.602 -84.69,0 0,7.191 z"
           inkscape:connector-curvature="0" />
        <path
           id="path3021"
           style="fill:#ffffff;fill-opacity:1;fill-rule:nonzero;stroke:none"
           d="m 2613.39,196.93056 66.25,0 -29.06,79.692 13.44,7.66 c 11.01,6.129 16.56,15.82 16.56,29.058 0,24.774 -18.91,37.192 -56.72,37.192 l -22.03,0 0,-160.782 -7.19,0 0,167.973 29.22,0 c 21.13,0 37.07,-3.91 47.81,-11.723 10.7,-7.738 16.1,-18.597 16.1,-32.66 0,-16.047 -6.72,-27.808 -20.16,-35.308 l -8.13,-4.532 30.47,-83.75 -76.56,0 0,7.18 z"
           inkscape:connector-curvature="0" />
        <path
           id="path3023"
           style="fill:#ffffff;fill-opacity:1;fill-rule:nonzero;stroke:none"
           d="m 2811.95,277.56356 -71.25,0 73.43,72.969 -81.09,0 0,-153.602 93.12,0 0,-7.18 -100.31,0 0,167.973 105.78,0 -73.43,-72.973 53.75,0 0,-7.187 z"
           inkscape:connector-curvature="0" />
        <path
           id="path3025"
           style="fill:#d77300;fill-opacity:1;fill-rule:nonzero;stroke:none"
           d="m 1302.49,765.76256 c -2.73,2.578 -7.62,6.168 -14.69,10.781 -6.99,4.571 -15.54,9.071 -25.62,13.438 -10,4.383 -20.9,8.051 -32.66,11.09 -11.79,3.011 -23.75,4.543 -35.93,4.543 -21.68,0 -37.82,-4.032 -48.44,-12.043 -10.63,-7.93 -15.94,-19.141 -15.94,-33.59 0,-8.359 1.95,-15.27 5.94,-20.777 3.94,-5.551 9.72,-10.391 17.34,-14.532 7.58,-4.179 17.19,-7.968 28.75,-11.41 11.64,-3.441 25.08,-7.031 40.31,-10.781 19.69,-5.309 37.58,-11.051 53.75,-17.188 16.14,-6.05 29.85,-13.671 41.1,-22.812 11.25,-9.059 19.88,-20 25.94,-32.809 6.01,-12.742 9.06,-28.359 9.06,-46.879 0,-21.679 -4.06,-40.23 -12.19,-55.621 -8.12,-15.429 -19.06,-27.89 -32.81,-37.351 -13.67,-9.489 -29.61,-16.399 -47.81,-20.778 -18.25,-4.371 -37.27,-6.562 -57.04,-6.562 -30.42,0 -60.46,4.531 -90.15,13.59 -29.61,9.152 -56.17,22.07 -79.69,38.75 l 34.69,67.972 c 3.44,-3.429 9.61,-7.929 18.59,-13.429 8.95,-5.551 19.46,-11.063 31.56,-16.571 12.19,-5.543 25.67,-10.23 40.47,-14.062 14.89,-3.75 30.08,-5.617 45.63,-5.617 43.32,0 65,13.816 65,41.558 0,9.141 -2.5,16.758 -7.5,22.809 -4.92,6.133 -11.95,11.449 -21.1,15.941 -9.06,4.571 -20.07,8.75 -32.96,12.5 -12.93,3.828 -27.35,7.852 -43.29,12.032 -19.37,5.308 -36.21,11.089 -50.46,17.339 -14.3,6.329 -26.18,13.68 -35.63,22.028 -9.49,8.32 -16.64,18.172 -21.41,29.543 -4.68,11.437 -7.03,25 -7.03,40.617 0,20.512 3.79,38.75 11.41,54.691 7.58,15.942 18.12,29.219 31.56,39.84 13.52,10.711 29.22,18.789 47.03,24.219 17.89,5.512 37.11,8.281 57.66,8.281 28.44,0 54.61,-4.488 78.59,-13.441 23.95,-8.86 44.85,-19.367 62.66,-31.559 l -34.69,-63.75 z"
           inkscape:connector-curvature="0" />
        <path
           id="path3027"
           style="fill:#d77300;fill-opacity:1;fill-rule:nonzero;stroke:none"
           d="m 1412.92,467.01256 0,404.059 78.6,0 0,-197.18 175,197.813 81.56,0 -155,-179.532 164.69,-225.16 -83.29,0 -128.75,180.629 -54.21,-58.598 0,-122.031 -78.6,0 z"
           inkscape:connector-curvature="0" />
        <path
           id="path3029"
           style="fill:#d77300;fill-opacity:1;fill-rule:nonzero;stroke:none"
           d="m 1794.84,467.01256 78.5898,0 0,404.059 -78.5898,0 0,-404.059 z"
           inkscape:connector-curvature="0" />
        <path
           id="path3031"
           style="fill:#d77300;fill-opacity:1;fill-rule:nonzero;stroke:none"
           d="m 2037.18,726.39156 0,-259.379 -78.59,0 0,404.692 60.93,0 210.94,-265.633 0,265 78.59,0 0,-404.059 -63.75,0 -208.12,259.379 z"
           inkscape:connector-curvature="0" />
        <path
           style="fill:#d77300;fill-opacity:1;fill-rule:nonzero;stroke:none"
           d="m 127.09,894.10366 0,-457.5 105.25,-126.75 -2.5,265.5 109,90.75 3.5,-290.75 328.5,-89 -111.5,-92.5 -230.5,69.75 -1.75,-67.75 73.75,-88.75 513.25,0 0,787 -787,0 z m 0,-674 0,-113 93.75,0 -93.75,113 z"
           id="path3033"
           inkscape:connector-curvature="0" />
      </g>
    </g>
  </g>
</svg>
